<svg version="1.1" xmlns="http://www.w3.org/2000/svg" xmlns:xlink="http://www.w3.org/1999/xlink" width="360.000000pt" height="360.000000pt" viewBox="0,0,256,256"><g fill="#ffffff" fill-rule="nonzero" stroke="none" stroke-width="1" stroke-linecap="butt" stroke-linejoin="miter" stroke-miterlimit="10" stroke-dasharray="" stroke-dashoffset="0" font-family="none" font-weight="none" font-size="none" text-anchor="none" style="mix-blend-mode: normal"><g transform="translate(-0.37868,-0.42714) scale(0.71111,0.71111)"><g transform="translate(0,360) scale(0.1,-0.1)"><path d="M1728,3116c-73,-16 -158,-73 -198,-134c-57,-86 -60,-111 -60,-503v-358l-387,-3c-386,-3 -388,-3 -436,-27c-63,-31 -127,-95 -157,-156c-21,-43 -25,-64 -25,-145c0,-92 2,-98 35,-154c20,-34 56,-75 86,-97c90,-69 93,-69 510,-69h373l3,-377l3,-378l27,-57c32,-69 92,-129 166,-165c120,-59 284,-25 374,76c83,94 82,87 88,516l5,380l385,5c368,5 387,6 432,27c162,74 238,270 167,424c-36,76 -89,133 -157,166l-57,28l-385,5l-385,5l-5,380l-5,380l-28,57c-66,135 -220,207 -369,174z"></path></g></g></g></svg>