<?xml version="1.0" standalone="no"?>
<!DOCTYPE svg PUBLIC "-//W3C//DTD SVG 20010904//EN"
 "http://www.w3.org/TR/2001/REC-SVG-20010904/DTD/svg10.dtd">
<svg version="1.0" xmlns="http://www.w3.org/2000/svg"
 width="360.000000pt" height="360.000000pt" viewBox="0 0 360.000000 360.000000"
 preserveAspectRatio="xMidYMid meet">

<g transform="translate(0.000000,360.000000) scale(0.100000,-0.100000)"
fill="#000000" stroke="none">
<path d="M1728 3116 c-73 -16 -158 -73 -198 -134 -57 -86 -60 -111 -60 -503
l0 -358 -387 -3 c-386 -3 -388 -3 -436 -27 -63 -31 -127 -95 -157 -156 -21
-43 -25 -64 -25 -145 0 -92 2 -98 35 -154 20 -34 56 -75 86 -97 90 -69 93 -69
510 -69 l373 0 3 -377 3 -378 27 -57 c32 -69 92 -129 166 -165 120 -59 284
-25 374 76 83 94 82 87 88 516 l5 380 385 5 c368 5 387 6 432 27 162 74 238
270 167 424 -36 76 -89 133 -157 166 l-57 28 -385 5 -385 5 -5 380 -5 380 -28
57 c-66 135 -220 207 -369 174z"/>
</g>
</svg>
